<?xml version="1.0" encoding="utf-8"?>
<!-- Generator: Adobe Illustrator 22.0.1, SVG Export Plug-In . SVG Version: 6.00 Build 0)  -->
<svg version="1.1" id="Layer_1" xmlns="http://www.w3.org/2000/svg" xmlns:xlink="http://www.w3.org/1999/xlink" x="0px" y="0px"
	 viewBox="0 0 1366 768" style="enable-background:new 0 0 1366 768;" xml:space="preserve">
<style type="text/css">
	.st0{fill-rule:evenodd;clip-rule:evenodd;fill:#1C93D1;}
	.st1{fill:#1C93D1;}
	.st2{fill-rule:evenodd;clip-rule:evenodd;fill:#005395;}
</style>
<g>
	<path class="st0" d="M517,311.6h23v16.3v56.9c0,6.8-1.5,13.2-4.5,19.2c-3,5.9-7.1,11.3-12.3,15.8h-0.2c-5.2,4.6-11.2,8.2-18.2,10.7
		c-6.9,2.5-14.4,3.8-22.2,3.8c-7.8,0-15.1-1.3-22.1-3.8c-6.9-2.6-13.1-6.1-18.3-10.7c-5.2-4.6-9.3-9.9-12.3-15.8
		c-3-6-4.5-12.4-4.5-19.2v-72.4h22.9v72.4c0,8.2,3.3,15.2,10,21c6.7,5.9,14.9,8.7,24.3,8.7c9.5,0,17.6-2.9,24.3-8.7
		c6-5.2,9.3-11.6,10-19.4v-58.5h-11.7v56.5c0,5.1-2.2,9.7-6.7,13.6c-4.6,3.8-9.9,5.7-15.9,5.7h-1.2c0.2-0.7,0.4-1.3,0.5-1.8
		c0.3-2.4,0.5-6.5,0.5-12.2v-61.8v-16.3h22.9H517z"/>
	<g>
		<path class="st1" d="M603.1,415.5c3.4-0.5,7.4-0.9,11.8-0.9c8,0,13.6,1.8,17.4,5c3.9,3.3,6.1,8,6.1,14.5c0,6.6-2.2,12-6.2,15.7
			c-4.1,3.8-10.7,5.8-19,5.8c-4,0-7.3-0.2-10.1-0.5V415.5z M608.6,451.3c1.4,0.2,3.4,0.2,5.6,0.2c11.9,0,18.3-6.2,18.3-17.2
			c0.1-9.5-5.7-15.6-17.4-15.6c-2.9,0-5,0.2-6.5,0.5V451.3z"/>
		<path class="st1" d="M671.4,436.4h-16.6V451h18.6v4.4h-24.2v-40.5h23.2v4.4h-17.6v12.8h16.6V436.4z"/>
		<path class="st1" d="M694.4,455.4l-14.1-40.5h6l6.7,19.9c1.8,5.5,3.4,10.4,4.6,15.1h0.1c1.2-4.7,2.9-9.8,4.9-15.1l7.3-20h5.9
			l-15.3,40.5H694.4z"/>
		<path class="st1" d="M746.4,436.4h-16.6V451h18.6v4.4h-24.2v-40.5h23.2v4.4h-17.6v12.8h16.6V436.4z"/>
		<path class="st1" d="M759.3,414.9h5.6V451h18.3v4.4h-23.9V414.9z"/>
		<path class="st1" d="M827.4,434.7c0,13.9-9,21.3-19.9,21.3c-11.4,0-19.3-8.3-19.3-20.6c0-12.8,8.4-21.3,19.9-21.3
			C819.9,414.2,827.4,422.7,827.4,434.7z M794.1,435.3c0,8.7,5,16.4,13.7,16.4c8.8,0,13.7-7.6,13.7-16.8c0-8.1-4.5-16.5-13.7-16.5
			C798.7,418.5,794.1,426.5,794.1,435.3z"/>
		<path class="st1" d="M838.4,415.4c2.7-0.4,6.2-0.8,10.6-0.8c5.5,0,9.5,1.2,12,3.4c2.3,1.9,3.8,4.9,3.8,8.5c0,3.7-1.1,6.5-3.3,8.6
			c-3,2.9-7.7,4.4-13.1,4.4c-1.7,0-3.2-0.1-4.5-0.4v16.2h-5.5V415.4z M844,434.9c1.2,0.3,2.7,0.4,4.6,0.4c6.7,0,10.8-3.1,10.8-8.6
			c0-5.4-4.1-8-10.1-8c-2.4,0-4.3,0.2-5.2,0.4V434.9z"/>
		<path class="st1" d="M898.3,436.4h-16.6V451h18.6v4.4H876v-40.5h23.2v4.4h-17.6v12.8h16.6V436.4z"/>
		<path class="st1" d="M911.2,415.5c2.8-0.5,6.9-0.8,10.6-0.8c5.9,0,9.8,1.1,12.4,3.3c2.1,1.8,3.4,4.6,3.4,7.7c0,5.3-3.6,8.8-8,10.3
			v0.2c3.2,1.1,5.2,4,6.2,8.2c1.4,5.6,2.4,9.5,3.3,11.1h-5.7c-0.7-1.2-1.7-4.6-2.8-9.7c-1.3-5.6-3.6-7.7-8.7-7.9h-5.2v17.5h-5.5
			V415.5z M916.8,433.9h5.7c5.9,0,9.7-3.1,9.7-7.7c0-5.2-4-7.5-9.9-7.5c-2.7,0-4.5,0.2-5.5,0.4V433.9z"/>
		<path class="st1" d="M948.6,449c2.5,1.5,6,2.6,9.9,2.6c5.7,0,9-2.8,9-6.9c0-3.7-2.3-5.9-8.1-8c-7-2.4-11.3-5.9-11.3-11.5
			c0-6.3,5.5-11,13.9-11c4.3,0,7.6,1,9.4,2l-1.5,4.3c-1.3-0.8-4.2-1.9-8.1-1.9c-5.9,0-8.1,3.3-8.1,6.1c0,3.8,2.6,5.6,8.5,7.8
			c7.3,2.6,10.9,5.9,10.9,11.9c0,6.2-4.8,11.7-15,11.7c-4.1,0-8.7-1.2-10.9-2.6L948.6,449z"/>
	</g>
	<g>
		<g>
			<path d="M598.2,354v-42.4h14.2V354c0,11.1,6.3,16.7,18.8,16.7c12.5,0,18.8-5.6,18.8-16.7v-42.4h14.2V354c0,18.6-11,27.9-33,27.9
				C609.3,381.9,598.2,372.6,598.2,354z"/>
			<path d="M680.4,381.3v-69.7h34.9c15.7,0,23.5,6.2,23.5,18.7c0,8.4-6.1,15.4-18.3,21l24.3,30.2H727L703.6,351v-5.9
				c13.6-2.1,20.4-6.9,20.4-14.4c0-5.1-3.2-7.7-9.6-7.7h-19.5v58.4H680.4z"/>
			<path d="M751.6,381.4v-69.8h36c14.6,0,21.9,5.4,21.9,16.3c0,7.9-4.8,13.6-14.3,17c10.2,1.7,15.3,7,15.3,15.9
				c0,13.8-8,20.7-24,20.7H751.6z M785.9,370.2c6.3,0,9.5-2.9,9.5-8.8c0-7.3-4.7-10.9-14.1-10.9h-4.3v-8.4
				c11.8-1.8,17.7-6.3,17.7-13.5c0-3.9-2.6-5.9-8-5.9h-20.8v47.4H785.9z"/>
			<path d="M906.5,381.4v-69.8h14.2l40.6,50.9v-50.9H975v69.8h-14.2l-40.6-52v52H906.5z"/>
		</g>
		<polygon points="863.8,311.6 848.5,311.6 815.9,381.4 830.5,381.4 855.8,324.9 867.9,351.2 873,362.4 881.8,381.4 897.1,381.4 		
			"/>
	</g>
	<path class="st2" d="M390.9,312.4v79.9c0,8.9,1.9,17.3,5.8,25c3.9,7.8,9.3,14.7,16.2,20.6c6.8,5.9,14.7,10.5,23.7,13.9
		c9,3.4,18.7,5.1,29,5.1c10.2,0,19.8-1.7,28.8-5.1c9-3.4,17-8,23.9-13.9c3-2.6,5.7-5.4,8.1-8.4l-0.1,0.1l-0.6,0.4l-0.3,0.2
		c-30.5,21-87.2,15.5-105.8-18.3c-1.6-2.8-2.8-5.8-3.6-8.8V403c-0.6-2.3-1.1-5.3-1.5-8.8c-0.3-3.4-0.5-7.2-0.5-11.6v-70.3H390.9
		L390.9,312.4z"/>
</g>
</svg>
