<?xml version="1.0" encoding="utf-8"?>
<!-- Generator: Adobe Illustrator 22.0.1, SVG Export Plug-In . SVG Version: 6.00 Build 0)  -->
<svg version="1.1" id="Layer_1" xmlns="http://www.w3.org/2000/svg" xmlns:xlink="http://www.w3.org/1999/xlink" x="0px" y="0px"
	 viewBox="0 0 1366 768" style="enable-background:new 0 0 1366 768;" xml:space="preserve">
<style type="text/css">
	.st0{fill-rule:evenodd;clip-rule:evenodd;fill:#F06723;}
	.st1{fill:#D92128;}
	.st2{fill-rule:evenodd;clip-rule:evenodd;fill:#D92128;}
</style>
<g>
	<path class="st0" d="M517,312h23v16.3v56.9c0,6.8-1.5,13.2-4.5,19.2c-3,5.9-7.1,11.3-12.3,15.8h-0.2c-5.2,4.6-11.2,8.2-18.2,10.7
		c-6.9,2.5-14.4,3.8-22.2,3.8c-7.8,0-15.1-1.3-22.1-3.8c-6.9-2.6-13.1-6.1-18.3-10.7c-5.2-4.6-9.3-9.9-12.3-15.8
		c-3-6-4.5-12.4-4.5-19.2v-72.4h22.9v72.4c0,8.2,3.3,15.2,10,21c6.7,5.9,14.9,8.7,24.3,8.7c9.5,0,17.6-2.9,24.3-8.7
		c6-5.2,9.3-11.6,10-19.4v-58.5h-11.7v56.5c0,5.1-2.2,9.7-6.7,13.6c-4.6,3.8-9.9,5.7-15.9,5.7h-1.2c0.2-0.7,0.4-1.3,0.5-1.8
		c0.3-2.4,0.5-6.5,0.5-12.2v-61.8V312h22.9H517z"/>
	<g>
		<path class="st1" d="M609.4,413.9v17.5h22.3v-17.5h6v41.9h-6v-19.6h-22.3v19.6h-6v-41.9H609.4z"/>
		<path class="st1" d="M694.2,434.4c0,14.4-9.6,22.1-21.4,22.1c-12.2,0-20.7-8.6-20.7-21.3c0-13.3,9-22,21.3-22
			C686,413.2,694.2,421.9,694.2,434.4z M658.4,435c0,9,5.3,17,14.8,17c9.4,0,14.8-7.9,14.8-17.4c0-8.4-4.8-17.1-14.7-17.1
			C663.3,417.6,658.4,425.9,658.4,435z"/>
		<path class="st1" d="M714.7,413.9v24.9c0,9.3,4.6,13.3,10.7,13.3c6.8,0,11.2-4.1,11.2-13.3v-24.9h6v24.5
			c0,12.9-7.4,18.1-17.4,18.1c-9.4,0-16.5-4.8-16.5-17.9v-24.7H714.7z"/>
		<path class="st1" d="M759,449.2c2.7,1.6,6.5,2.7,10.6,2.7c6.1,0,9.6-2.9,9.6-7.1c0-3.9-2.5-6.2-8.7-8.3
			c-7.5-2.5-12.2-6.1-12.2-11.9c0-6.5,5.9-11.4,14.9-11.4c4.6,0,8.1,1,10.1,2.1l-1.6,4.4c-1.4-0.8-4.5-2-8.7-2
			c-6.3,0-8.7,3.4-8.7,6.3c0,3.9,2.8,5.8,9.2,8.1c7.8,2.7,11.7,6.2,11.7,12.3c0,6.5-5.2,12.1-16.1,12.1c-4.4,0-9.3-1.2-11.8-2.7
			L759,449.2z"/>
		<path class="st1" d="M824.1,436.1h-17.8v15.1h20v4.5h-26v-41.9h24.9v4.5h-18.9v13.2h17.8V436.1z"/>
		<path class="st1" d="M840,449.2c2.7,1.6,6.5,2.7,10.6,2.7c6.1,0,9.6-2.9,9.6-7.1c0-3.9-2.5-6.2-8.7-8.3
			c-7.5-2.5-12.2-6.1-12.2-11.9c0-6.5,5.9-11.4,14.9-11.4c4.6,0,8.1,1,10.1,2.1l-1.6,4.4c-1.4-0.8-4.5-2-8.7-2
			c-6.3,0-8.7,3.4-8.7,6.3c0,3.9,2.8,5.8,9.2,8.1c7.8,2.7,11.7,6.2,11.7,12.3c0,6.5-5.2,12.1-16.1,12.1c-4.4,0-9.3-1.2-11.8-2.7
			L840,449.2z"/>
	</g>
	<g>
		<g>
			<path d="M598.2,354.4V312h14.2v42.4c0,11.1,6.3,16.7,18.8,16.7c12.5,0,18.8-5.6,18.8-16.7V312h14.2v42.4c0,18.6-11,27.9-33,27.9
				C609.3,382.3,598.2,373,598.2,354.4z"/>
			<path d="M680.4,381.8V312h34.9c15.7,0,23.5,6.2,23.5,18.7c0,8.4-6.1,15.4-18.3,21l24.3,30.2H727l-23.4-30.4v-5.9
				c13.6-2.1,20.4-6.9,20.4-14.4c0-5.1-3.2-7.7-9.6-7.7h-19.5v58.4H680.4z"/>
			<path d="M751.6,381.8V312h36c14.6,0,21.9,5.4,21.9,16.3c0,7.9-4.8,13.6-14.3,17c10.2,1.7,15.3,7,15.3,15.9c0,13.8-8,20.7-24,20.7
				H751.6z M785.9,370.6c6.3,0,9.5-2.9,9.5-8.8c0-7.3-4.7-10.9-14.1-10.9h-4.3v-8.4c11.8-1.8,17.7-6.3,17.7-13.5
				c0-3.9-2.6-5.9-8-5.9h-20.8v47.4H785.9z"/>
			<path d="M906.5,381.8V312h14.2l40.6,50.9V312H975v69.8h-14.2l-40.6-52v52H906.5z"/>
		</g>
		<polygon points="863.8,312 848.5,312 815.9,381.8 830.5,381.8 855.8,325.3 867.9,351.6 873,362.8 881.8,381.8 897.1,381.8 		"/>
	</g>
	<path class="st2" d="M390.9,312.8v79.9c0,8.9,1.9,17.3,5.8,25c3.9,7.8,9.3,14.7,16.2,20.6c6.8,5.9,14.7,10.5,23.7,13.9
		c9,3.4,18.7,5.1,29,5.1c10.2,0,19.8-1.7,28.8-5.1c9-3.4,17-8,23.9-13.9c3-2.6,5.7-5.4,8.1-8.4l-0.1,0.1l-0.6,0.4l-0.3,0.2
		c-30.5,21-87.2,15.5-105.8-18.3c-1.6-2.8-2.8-5.8-3.6-8.8v-0.1c-0.6-2.3-1.1-5.3-1.5-8.8c-0.3-3.4-0.5-7.2-0.5-11.6v-70.3H390.9
		L390.9,312.8z"/>
</g>
</svg>
